<svg width="56" height="56" viewBox="0 0 56 56" fill="none" xmlns="http://www.w3.org/2000/svg">
<g opacity="0.2">
<path d="M9.20571 30.0634L19.9306 35.0567C20.2079 35.1852 20.503 35.2504 20.8082 35.2504C21.2056 35.2504 21.5929 35.1374 21.9297 34.9229C22.5329 34.5371 22.893 33.8796 22.893 33.1638V33.109C22.893 32.3003 22.4195 31.5575 21.6866 31.2164L14.9789 28.0965L21.6868 24.9759C22.4195 24.6348 22.893 23.8918 22.893 23.0835V23.0292C22.893 22.3124 22.5327 21.6549 21.9299 21.2702C21.5963 21.0568 21.2079 20.9441 20.8068 20.9441C20.5045 20.9441 20.2011 21.0106 19.9296 21.1369L9.20554 26.1295C8.47314 26.4708 8 27.2136 8 28.0218V28.1712C7.99983 28.9784 8.4728 29.721 9.20571 30.0634Z" fill="#C7C7C7"/>
<path d="M22.9885 40.2338C23.3797 40.7698 24.0089 41.0898 24.6718 41.0898H24.7254C25.6352 41.0898 26.4326 40.5067 26.7097 39.6403L33.7748 17.724C33.9774 17.0914 33.8649 16.3933 33.4737 15.8562C33.0825 15.3202 32.4533 15 31.7904 15H31.737C30.8268 15 30.0288 15.5831 29.7515 16.4495L22.6856 38.3676C22.4846 39.0008 22.5979 39.6982 22.9885 40.2338Z" fill="#C7C7C7"/>
<path d="M33.5689 23.0833C33.5689 23.8911 34.0418 24.6339 34.7751 24.9763L41.4828 28.0963L34.7751 31.2162C34.0422 31.5573 33.5687 32.3001 33.5687 33.1088V33.1636C33.5687 33.8794 33.9286 34.5369 34.5325 34.9229C34.8681 35.137 35.2557 35.2502 35.6537 35.2502C35.9583 35.2502 36.2533 35.185 36.5325 35.0558L47.2568 30.0627C47.989 29.7208 48.462 28.9782 48.462 28.1708V28.0214C48.462 27.2132 47.9889 26.4704 47.2561 26.1292L36.532 21.1362C36.2615 21.0104 35.9585 20.9437 35.6561 20.9437C35.2552 20.9437 34.8665 21.0564 34.5333 21.2692C33.9291 21.6545 33.5689 22.312 33.5689 23.0288V23.0833Z" fill="#C7C7C7"/>
</g>
<g opacity="0.2">
<circle cx="28" cy="28" r="26" stroke="#C7C7C7" stroke-width="4"/>
</g>
</svg>
