<svg width="66" height="69" viewBox="0 0 66 69" fill="none" xmlns="http://www.w3.org/2000/svg">
<g filter="url(#filter0_d_4_13)">
<path fill-rule="evenodd" clip-rule="evenodd" d="M52.8148 55.8189L58 2H2L7.18518 55.8189L29.8848 60.0988L52.8148 55.8189ZM49.9043 52.5267L54.428 5.74487H5.57204L10.0957 52.5267L29.8995 56.2469L49.9043 52.5267Z" fill="url(#paint0_linear_4_13)" shape-rendering="crispEdges"/>
</g>
<g filter="url(#filter1_d_4_13)">
<path d="M12.9916 11.0289H47.1443L43.5067 48.322L29.5627 51.0699L16.4271 48.322L15.6188 39.0968L21.8835 40.0782L22.0855 43.415L29.5627 44.9852L37.242 43.2187L38.0504 33.601H21.4793V27.1238H38.6566L39.6671 17.5061H13.5979L12.9916 11.0289Z" fill="url(#paint1_linear_4_13)" shape-rendering="crispEdges"/>
</g>
<defs>
<filter id="filter0_d_4_13" x="0" y="0" width="66" height="68.0988" filterUnits="userSpaceOnUse" color-interpolation-filters="sRGB">
<feFlood flood-opacity="0" result="BackgroundImageFix"/>
<feColorMatrix in="SourceAlpha" type="matrix" values="0 0 0 0 0 0 0 0 0 0 0 0 0 0 0 0 0 0 127 0" result="hardAlpha"/>
<feOffset dx="3" dy="3"/>
<feGaussianBlur stdDeviation="2.5"/>
<feComposite in2="hardAlpha" operator="out"/>
<feColorMatrix type="matrix" values="0 0 0 0 0 0 0 0 0 0 0 0 0 0 0 0 0 0 0.5 0"/>
<feBlend mode="normal" in2="BackgroundImageFix" result="effect1_dropShadow_4_13"/>
<feBlend mode="normal" in="SourceGraphic" in2="effect1_dropShadow_4_13" result="shape"/>
</filter>
<filter id="filter1_d_4_13" x="10.9916" y="9.02886" width="44.1526" height="50.041" filterUnits="userSpaceOnUse" color-interpolation-filters="sRGB">
<feFlood flood-opacity="0" result="BackgroundImageFix"/>
<feColorMatrix in="SourceAlpha" type="matrix" values="0 0 0 0 0 0 0 0 0 0 0 0 0 0 0 0 0 0 127 0" result="hardAlpha"/>
<feOffset dx="3" dy="3"/>
<feGaussianBlur stdDeviation="2.5"/>
<feComposite in2="hardAlpha" operator="out"/>
<feColorMatrix type="matrix" values="0 0 0 0 0 0 0 0 0 0 0 0 0 0 0 0 0 0 0.5 0"/>
<feBlend mode="normal" in2="BackgroundImageFix" result="effect1_dropShadow_4_13"/>
<feBlend mode="normal" in="SourceGraphic" in2="effect1_dropShadow_4_13" result="shape"/>
</filter>
<linearGradient id="paint0_linear_4_13" x1="70" y1="-10.5" x2="-1.5" y2="60" gradientUnits="userSpaceOnUse">
<stop stop-color="white"/>
<stop offset="0.317708" stop-color="#898989"/>
<stop offset="0.374906" stop-color="#AAAAAA"/>
<stop offset="1" stop-color="white" stop-opacity="0"/>
</linearGradient>
<linearGradient id="paint1_linear_4_13" x1="48.5" y1="9.5" x2="11.5" y2="50" gradientUnits="userSpaceOnUse">
<stop stop-color="white"/>
<stop offset="0.338542" stop-color="#AFAFAF"/>
<stop offset="0.453125" stop-color="#898989"/>
<stop offset="1" stop-color="white" stop-opacity="0"/>
</linearGradient>
</defs>
</svg>
