<svg width="56" height="20" viewBox="0 0 56 20" fill="none" xmlns="http://www.w3.org/2000/svg">
<path fill-rule="evenodd" clip-rule="evenodd" d="M16 12V16C16 18.204 14.212 20 12 20C9.792 20 8 18.208 8 16V4C8 1.792 9.792 0 12 0C14.212 0 16 1.796 16 4V8H40V4C40 1.796 41.788 0 44 0C46.212 0 48 1.796 48 4V16C48 18.204 46.212 20 44 20C41.788 20 40 18.204 40 16V12H16ZM54 12V14C54 15.104 53.104 16 52 16C50.896 16 50 15.104 50 14V6C50 4.896 50.896 4 52 4C53.104 4 54 4.896 54 6V8H56V12H54ZM2 8V6C2 4.896 2.896 4 4 4C5.104 4 6 4.896 6 6V14C6 15.104 5.104 16 4 16C2.896 16 2 15.104 2 14V12H0V8H2Z" fill="white"/>
</svg>
