<svg width="56" height="56" viewBox="0 0 56 56" fill="none" xmlns="http://www.w3.org/2000/svg">
<path d="M18.6667 24.5C18.6667 26.4296 17.0963 28 15.1667 28C13.237 28 11.6667 26.4296 11.6667 24.5C11.6667 22.5703 13.237 21 15.1667 21C17.0963 21 18.6667 22.5703 18.6667 24.5ZM56 39.004C56 42.707 54.6933 45.0496 51.919 46.4216C51.5853 46.5873 51.2283 46.6666 50.8713 46.6666C50.3067 46.6666 49.7467 46.4636 49.3033 46.0716L42.049 39.6666C40.747 38.514 39.613 37.324 36.4397 37.324H19.5627C16.3893 37.324 15.253 38.514 13.9533 39.6666L6.69667 46.0716C6.258 46.4636 5.69567 46.6666 5.12867 46.6666C4.774 46.6666 4.41233 46.5873 4.081 46.4216C1.30667 45.0496 0 42.707 0 39.0063C0 34.195 2.205 26.264 6.25567 16.0066C8.17367 11.1463 11.6037 9.33331 14.8773 9.33331C16.408 9.33331 17.906 9.72998 19.201 10.3973C24.857 13.3116 31.2643 13.251 36.8037 10.3973C38.094 9.72998 39.592 9.33331 41.1227 9.33331C44.3963 9.33331 47.8287 11.1463 49.7467 16.0066C53.795 26.2616 56 34.1926 56 39.004ZM21 24.5C21 21.2776 18.389 18.6666 15.1667 18.6666C11.9443 18.6666 9.33333 21.2776 9.33333 24.5C9.33333 27.7223 11.9443 30.3333 15.1667 30.3333C18.389 30.3333 21 27.7223 21 24.5ZM30.3333 18.6666C30.3333 17.3786 29.2903 16.3333 28 16.3333C26.7097 16.3333 25.6667 17.3786 25.6667 18.6666C25.6667 19.9546 26.7097 21 28 21C29.2903 21 30.3333 19.9546 30.3333 18.6666ZM38.5 24.5C38.5 23.5316 37.716 22.75 36.75 22.75C35.784 22.75 35 23.5316 35 24.5C35 25.4683 35.784 26.25 36.75 26.25C37.716 26.25 38.5 25.4683 38.5 24.5ZM42.5833 28.5833C42.5833 27.615 41.7993 26.8333 40.8333 26.8333C39.8673 26.8333 39.0833 27.615 39.0833 28.5833C39.0833 29.5516 39.8673 30.3333 40.8333 30.3333C41.7993 30.3333 42.5833 29.5516 42.5833 28.5833ZM42.5833 20.3443C42.5833 19.376 41.7993 18.5943 40.8333 18.5943C39.8673 18.5943 39.0833 19.376 39.0833 20.3443C39.0833 21.3126 39.8673 22.0943 40.8333 22.0943C41.7993 22.0943 42.5833 21.3103 42.5833 20.3443ZM46.6293 24.5C46.6293 23.5316 45.8453 22.75 44.8793 22.75C43.9133 22.75 43.1293 23.5316 43.1293 24.5C43.1293 25.4683 43.9133 26.25 44.8793 26.25C45.8453 26.25 46.6293 25.4683 46.6293 24.5Z" fill="white"/>
</svg>
