<svg width="56" height="56" viewBox="0 0 56 56" fill="none" xmlns="http://www.w3.org/2000/svg">
<g opacity="0.2">
<path d="M48.1639 30.4262V25.4057L43.1434 24.5697C42.8074 22.7295 41.9713 21.2213 41.1353 19.7172L43.9795 15.5328L40.4672 12.0164L36.2828 15.0287C34.7746 14.0246 33.1025 13.3566 31.4303 13.0205L30.5943 8H25.5738L24.7377 12.8525C22.8975 13.1885 21.3893 13.8566 19.8852 14.8607L15.7008 11.8484L12.1844 15.5287L15.0287 19.7131C14.1926 21.0533 13.3566 22.7254 13.0205 24.5656L8 25.4057V30.4262L13.0205 31.2623C13.3566 33.1025 14.1926 34.6107 15.0287 36.1148L12.0164 40.2992L15.5328 43.8156L19.7172 40.9672C21.2213 41.9713 22.8975 42.6393 24.5697 42.9754L25.4057 48H30.4262L31.2623 42.9795C33.1025 42.6434 34.7746 41.8074 36.1148 40.9713L40.2992 43.8197L43.8156 40.3033L40.7992 36.1148C41.8033 34.6107 42.4713 32.9344 42.8074 31.2623L48.1639 30.4262ZM28.082 37.959C22.5615 37.959 18.041 33.4385 18.041 27.918C18.041 22.3975 22.5615 17.877 28.082 17.877C33.6025 17.877 38.123 22.3975 38.123 27.918C38.123 33.4385 33.6025 37.959 28.082 37.959Z" fill="#C7C7C7"/>
<path d="M28.082 22.8934C30.8524 22.8934 33.1024 25.1434 33.1024 27.9139C33.1024 30.6844 30.8524 32.9344 28.082 32.9344C25.3074 32.9344 23.0615 30.6844 23.0615 27.9139C23.0615 25.1434 25.3074 22.8934 28.082 22.8934Z" fill="#C7C7C7"/>
<circle cx="28" cy="28" r="26" stroke="#C7C7C7" stroke-width="4"/>
</g>
</svg>
