<svg width="70" height="70" viewBox="0 0 70 70" fill="none" xmlns="http://www.w3.org/2000/svg">
<g filter="url(#filter0_d_12_115)">
<path d="M60 35.2686V28.2686L53 27.1029C52.5314 24.5371 51.3657 22.4343 50.2 20.3371L54.1657 14.5029L49.2686 9.6L43.4343 13.8C41.3314 12.4 39 11.4686 36.6686 11L35.5029 4H28.5029L27.3371 10.7657C24.7714 11.2343 22.6686 12.1657 20.5714 13.5657L14.7371 9.36571L9.83429 14.4971L13.8 20.3314C12.6343 22.2 11.4686 24.5314 11 27.0971L4 28.2686V35.2686L11 36.4343C11.4686 39 12.6343 41.1029 13.8 43.2L9.6 49.0343L14.5029 53.9371L20.3371 49.9657C22.4343 51.3657 24.7714 52.2971 27.1029 52.7657L28.2686 59.7714H35.2686L36.4343 52.7714C39 52.3029 41.3314 51.1371 43.2 49.9714L49.0343 53.9429L53.9371 49.04L49.7314 43.2C51.1314 41.1029 52.0629 38.7657 52.5314 36.4343L60 35.2686ZM32 45.7714C24.3029 45.7714 18 39.4686 18 31.7714C18 24.0743 24.3029 17.7714 32 17.7714C39.6971 17.7714 46 24.0743 46 31.7714C46 39.4686 39.6971 45.7714 32 45.7714Z" fill="url(#paint0_linear_12_115)"/>
<path d="M32 24.7657C35.8629 24.7657 39 27.9029 39 31.7657C39 35.6286 35.8629 38.7657 32 38.7657C28.1314 38.7657 25 35.6286 25 31.7657C25 27.9029 28.1314 24.7657 32 24.7657Z" fill="url(#paint1_linear_12_115)"/>
</g>
<defs>
<filter id="filter0_d_12_115" x="0" y="0" width="70" height="69.7714" filterUnits="userSpaceOnUse" color-interpolation-filters="sRGB">
<feFlood flood-opacity="0" result="BackgroundImageFix"/>
<feColorMatrix in="SourceAlpha" type="matrix" values="0 0 0 0 0 0 0 0 0 0 0 0 0 0 0 0 0 0 127 0" result="hardAlpha"/>
<feOffset dx="3" dy="3"/>
<feGaussianBlur stdDeviation="3.5"/>
<feComposite in2="hardAlpha" operator="out"/>
<feColorMatrix type="matrix" values="0 0 0 0 0 0 0 0 0 0 0 0 0 0 0 0 0 0 0.5 0"/>
<feBlend mode="normal" in2="BackgroundImageFix" result="effect1_dropShadow_12_115"/>
<feBlend mode="normal" in="SourceGraphic" in2="effect1_dropShadow_12_115" result="shape"/>
</filter>
<linearGradient id="paint0_linear_12_115" x1="52.8341" y1="9.09247" x2="7.16268" y2="54.6031" gradientUnits="userSpaceOnUse">
<stop stop-color="white"/>
<stop offset="0.3125" stop-color="#CACACA"/>
<stop offset="0.403615" stop-color="#B6B3B3"/>
<stop offset="1" stop-color="white"/>
</linearGradient>
<linearGradient id="paint1_linear_12_115" x1="37.2085" y1="26.0441" x2="25.7441" y2="37.4214" gradientUnits="userSpaceOnUse">
<stop stop-color="white"/>
<stop offset="0.3125" stop-color="#CACACA"/>
<stop offset="0.403615" stop-color="#B6B3B3"/>
<stop offset="1" stop-color="white"/>
</linearGradient>
</defs>
</svg>
