<svg width="14" height="14" viewBox="0 0 14 14" fill="none" xmlns="http://www.w3.org/2000/svg">
<path d="M7 0C3.13483 0 0 3.21349 0 7.17696C0 10.348 2.0055 13.0381 4.78742 13.9873C5.13683 14.0537 5.25 13.8312 5.25 13.6422V12.3061C3.30283 12.7403 2.89742 11.4592 2.89742 11.4592C2.57892 10.6297 2.11983 10.409 2.11983 10.409C1.48458 9.96342 2.16825 9.97299 2.16825 9.97299C2.87117 10.0232 3.241 10.7128 3.241 10.7128C3.86517 11.8097 4.87842 11.4927 5.278 11.3091C5.34042 10.8456 5.52183 10.5286 5.7225 10.3498C4.16792 10.1674 2.53342 9.55194 2.53342 6.80256C2.53342 6.01848 2.807 5.37854 3.25442 4.87615C3.18208 4.69493 2.94233 3.96467 3.32267 2.97665C3.32267 2.97665 3.91067 2.78406 5.24825 3.71228C5.8065 3.55319 6.405 3.47365 7 3.47066C7.595 3.47365 8.19408 3.55319 8.7535 3.71228C10.0899 2.78406 10.6767 2.97665 10.6767 2.97665C11.0577 3.96527 10.8179 4.69553 10.7456 4.87615C11.1947 5.37854 11.466 6.01908 11.466 6.80256C11.466 9.55912 9.82858 10.1662 8.26992 10.3438C8.52075 10.5663 8.75 11.0029 8.75 11.6727V13.6422C8.75 13.833 8.862 14.0573 9.21725 13.9867C11.9968 13.0364 14 10.3468 14 7.17696C14 3.21349 10.8657 0 7 0Z" fill="#E6801C"/>
</svg>
