<svg width="11" height="14" viewBox="0 0 11 14" fill="none" xmlns="http://www.w3.org/2000/svg">
<path fill-rule="evenodd" clip-rule="evenodd" d="M5.19333 13.4007L5.24 13.4273L5.25867 13.438C5.33269 13.478 5.41552 13.499 5.49967 13.499C5.58382 13.499 5.66664 13.478 5.74067 13.438L5.75933 13.428L5.80667 13.4007C6.06741 13.2461 6.32184 13.081 6.56933 12.906C7.21005 12.4537 7.80869 11.9445 8.358 11.3847C9.654 10.058 11 8.06467 11 5.5C11 4.04131 10.4205 2.64236 9.38909 1.61091C8.35764 0.579463 6.95869 0 5.5 0C4.04131 0 2.64236 0.579463 1.61091 1.61091C0.579463 2.64236 0 4.04131 0 5.5C0 8.064 1.34667 10.058 2.642 11.3847C3.1911 11.9445 3.78952 12.4536 4.43 12.906C4.67771 13.0811 4.93236 13.2461 5.19333 13.4007ZM5.5 7.5C6.03043 7.5 6.53914 7.28929 6.91421 6.91421C7.28929 6.53914 7.5 6.03043 7.5 5.5C7.5 4.96957 7.28929 4.46086 6.91421 4.08579C6.53914 3.71071 6.03043 3.5 5.5 3.5C4.96957 3.5 4.46086 3.71071 4.08579 4.08579C3.71071 4.46086 3.5 4.96957 3.5 5.5C3.5 6.03043 3.71071 6.53914 4.08579 6.91421C4.46086 7.28929 4.96957 7.5 5.5 7.5Z" fill="#E6801C"/>
</svg>
