<svg width="66" height="74" viewBox="0 0 66 74" fill="none" xmlns="http://www.w3.org/2000/svg">
<g filter="url(#filter0_d_11_96)">
<path d="M30 65.1702C29.1304 65.1702 28.3188 64.9381 27.5652 64.5319L19.8551 59.9472C18.6957 59.3088 19.2754 59.0767 19.6232 58.9606C21.1884 58.4383 21.4783 58.3222 23.1014 57.3937C23.2754 57.2776 23.5072 57.3356 23.6812 57.4517L29.5942 60.9918C29.8261 61.1078 30.1159 61.1078 30.2899 60.9918L53.4203 47.5859C53.6522 47.4698 53.7681 47.2377 53.7681 46.9475V20.1937C53.7681 19.9036 53.6522 19.6714 53.4203 19.5554L30.2899 6.20748C30.058 6.09141 29.7681 6.09141 29.5942 6.20748L6.46377 19.5554C6.23188 19.6714 6.11594 19.9616 6.11594 20.1937V46.9475C6.11594 47.1796 6.23188 47.4698 6.46377 47.5859L12.7826 51.242C16.2029 52.9831 18.3478 50.9519 18.3478 48.9207V22.5151C18.3478 22.1669 18.6377 21.8187 19.0435 21.8187H22C22.3478 21.8187 22.6957 22.1089 22.6957 22.5151V48.9207C22.6957 53.5054 20.2029 56.1749 15.8551 56.1749C14.5217 56.1749 13.4783 56.1749 10.5217 54.7241L4.43478 51.242C2.92754 50.3715 2 48.7466 2 47.0055V20.2518C2 18.5107 2.92754 16.8858 4.43478 16.0153L27.5652 2.60936C29.0145 1.79688 30.9855 1.79688 32.4348 2.60936L55.5652 16.0153C57.0725 16.8858 58 18.5107 58 20.2518V47.0055C58 48.7466 57.0725 50.3715 55.5652 51.242L32.4348 64.6479C31.6812 64.9961 30.8116 65.1702 30 65.1702ZM37.1304 46.7734C26.9855 46.7734 24.8986 42.1307 24.8986 38.1843C24.8986 37.8361 25.1884 37.4879 25.5942 37.4879H28.6087C28.9565 37.4879 29.2464 37.7201 29.2464 38.0683C29.7101 41.1441 31.0435 42.653 37.1884 42.653C42.058 42.653 44.1449 41.5503 44.1449 38.9388C44.1449 37.4299 43.5652 36.3272 35.971 35.5728C29.6522 34.9344 25.7101 33.5416 25.7101 28.4926C25.7101 23.7918 29.6522 21.0062 36.2609 21.0062C43.6812 21.0062 47.3333 23.5597 47.7971 29.131C47.7971 29.3051 47.7391 29.4792 47.6232 29.6533C47.5072 29.7694 47.3333 29.8854 47.1594 29.8854H44.1449C43.8551 29.8854 43.5652 29.6533 43.5072 29.3631C42.8116 26.1713 41.0145 25.1266 36.2609 25.1266C30.9275 25.1266 30.2899 26.9837 30.2899 28.3766C30.2899 30.0595 31.0435 30.5819 38.2319 31.5104C45.3623 32.4389 48.7246 33.7737 48.7246 38.7647C48.6667 43.8717 44.4928 46.7734 37.1304 46.7734Z" fill="url(#paint0_linear_11_96)"/>
</g>
<defs>
<filter id="filter0_d_11_96" x="0" y="0" width="66" height="73.1702" filterUnits="userSpaceOnUse" color-interpolation-filters="sRGB">
<feFlood flood-opacity="0" result="BackgroundImageFix"/>
<feColorMatrix in="SourceAlpha" type="matrix" values="0 0 0 0 0 0 0 0 0 0 0 0 0 0 0 0 0 0 127 0" result="hardAlpha"/>
<feOffset dx="3" dy="3"/>
<feGaussianBlur stdDeviation="2.5"/>
<feComposite in2="hardAlpha" operator="out"/>
<feColorMatrix type="matrix" values="0 0 0 0 0 0 0 0 0 0 0 0 0 0 0 0 0 0 0.5 0"/>
<feBlend mode="normal" in2="BackgroundImageFix" result="effect1_dropShadow_11_96"/>
<feBlend mode="normal" in="SourceGraphic" in2="effect1_dropShadow_11_96" result="shape"/>
</filter>
<linearGradient id="paint0_linear_11_96" x1="57" y1="8" x2="-2.5" y2="63" gradientUnits="userSpaceOnUse">
<stop stop-color="white"/>
<stop offset="0.417532" stop-color="#ADAFAC"/>
<stop offset="0.493693" stop-color="#D1D1D1"/>
<stop offset="1" stop-color="white" stop-opacity="0"/>
</linearGradient>
</defs>
</svg>
