<svg width="56" height="56" viewBox="0 0 56 56" fill="none" xmlns="http://www.w3.org/2000/svg">
<g opacity="0.2">
<circle cx="28" cy="28" r="26" stroke="#C7C7C7" stroke-width="4"/>
</g>
<path fill-rule="evenodd" clip-rule="evenodd" d="M27.8111 30.6435L28.5165 30.9217L29.2222 30.6435L40.5937 26.2261V37.0436C40.5937 39.374 35.1851 41.2698 28.4998 41.2698C21.8146 41.2698 16.406 39.374 16.406 37.0436V26.2261L27.8111 30.6435ZM12.358 35.861V22.4173L28.5168 28.6957L50 20.3479L28.5168 12L7 20.3479L10.3593 21.6522V35.8782C9.56963 36.2608 9.01535 37.1129 9.01535 38.087V44H13.7185V38.087C13.7185 37.0957 13.1643 36.2436 12.358 35.861ZM18.1193 17.6364L19.2557 22H20.7443L21.4261 19.4574H21.4744L22.1562 22H23.642L24.7812 17.6364H23.3864L22.8153 20.4119H22.7784L22.1307 17.6364H20.7699L20.1392 20.4318H20.1023L19.5142 17.6364H18.1193ZM25.0178 17.6364L26.1541 22H27.6428L28.3246 19.4574H28.3729L29.0547 22H30.5405L31.6797 17.6364H30.2848L29.7138 20.4119H29.6768L29.0291 17.6364H27.6683L27.0376 20.4318H27.0007L26.4126 17.6364H25.0178ZM31.9162 17.6364L33.0526 22H34.5412L35.223 19.4574H35.2713L35.9531 22H37.4389L38.5781 17.6364H37.1832L36.6122 20.4119H36.5753L35.9276 17.6364H34.5668L33.9361 20.4318H33.8991L33.3111 17.6364H31.9162Z" fill="#C7C7C7" fill-opacity="0.2"/>
</svg>
