<svg width="10" height="16" viewBox="0 0 10 16" fill="none" xmlns="http://www.w3.org/2000/svg">
<path d="M4 12.5C3.86739 12.5 3.74022 12.5527 3.64645 12.6464C3.55268 12.7402 3.5 12.8674 3.5 13C3.5 13.1326 3.55268 13.2598 3.64645 13.3536C3.74022 13.4473 3.86739 13.5 4 13.5H6C6.13261 13.5 6.25979 13.4473 6.35355 13.3536C6.44732 13.2598 6.5 13.1326 6.5 13C6.5 12.8674 6.44732 12.7402 6.35355 12.6464C6.25979 12.5527 6.13261 12.5 6 12.5H4Z" fill="#E6801C"/>
<path d="M2.75 0.5C2.15326 0.5 1.58097 0.737053 1.15901 1.15901C0.737053 1.58097 0.5 2.15326 0.5 2.75V13.25C0.5 13.8467 0.737053 14.419 1.15901 14.841C1.58097 15.2629 2.15326 15.5 2.75 15.5H7.25C7.84674 15.5 8.41903 15.2629 8.84099 14.841C9.26295 14.419 9.5 13.8467 9.5 13.25V2.75C9.5 2.15326 9.26295 1.58097 8.84099 1.15901C8.41903 0.737053 7.84674 0.5 7.25 0.5H2.75ZM2 2.75C2 2.336 2.336 2 2.75 2H3.5V2.25C3.5 2.664 3.836 3 4.25 3H5.75C6.164 3 6.5 2.664 6.5 2.25V2H7.25C7.664 2 8 2.336 8 2.75V13.25C8 13.664 7.664 14 7.25 14H2.75C2.55109 14 2.36032 13.921 2.21967 13.7803C2.07902 13.6397 2 13.4489 2 13.25V2.75Z" fill="#E6801C"/>
</svg>
