<svg width="179" height="179" viewBox="0 0 179 179" fill="none" xmlns="http://www.w3.org/2000/svg">
<circle cx="88.7676" cy="90" r="26" fill="#00E18F"/>
<path fill-rule="evenodd" clip-rule="evenodd" d="M134.779 109C127.209 126.643 109.682 139 89.2676 139C68.8535 139 51.3257 126.643 43.7565 109H33.0365C41.1098 132.284 63.2365 149 89.2676 149C115.299 149 137.425 132.284 145.499 109H134.779ZM145.499 70C137.425 46.7164 115.299 30 89.2676 30C63.2365 30 41.1098 46.7164 33.0365 70H43.7565C51.3257 52.3575 68.8535 40 89.2676 40C109.682 40 127.209 52.3575 134.779 70H145.499Z" fill="#00E18F"/>
<path fill-rule="evenodd" clip-rule="evenodd" d="M168.418 97C164.639 137.389 130.645 169 89.2676 169C47.8903 169 13.896 137.389 10.1167 97H0.0773646C3.88715 142.92 42.3639 179 89.2676 179C136.171 179 174.648 142.92 178.458 97H168.418ZM178.535 83C175.205 36.6049 136.511 0 89.2676 0C42.0239 0 3.32985 36.6049 0 83H10.0295C13.3364 42.1336 47.5494 10 89.2676 10C130.986 10 165.199 42.1336 168.506 83H178.535Z" fill="#00E18F"/>
</svg>
