<svg width="68" height="68" viewBox="0 0 68 68" fill="none" xmlns="http://www.w3.org/2000/svg">
<g filter="url(#filter0_d_6_64)">
<path fill-rule="evenodd" clip-rule="evenodd" d="M60 31C60 47.0163 47.0163 60 31 60C14.9837 60 2 47.0163 2 31C2 14.9837 14.9837 2 31 2C47.0163 2 60 14.9837 60 31ZM44.2638 14.2861C43.9665 12.8903 43.3921 12.0411 42.66 11.6166C41.9279 11.1921 40.9085 11.117 39.5563 11.5564C38.2044 11.9956 36.6311 12.9183 34.9364 14.3017C34.2711 14.8448 33.5936 15.4536 32.9103 16.1231C34.3214 17.6518 35.7275 19.399 37.0826 21.3245C39.4184 21.5403 41.6263 21.8894 43.6487 22.352C43.8846 21.4223 44.0709 20.528 44.2066 19.6773C44.552 17.5115 44.561 15.6817 44.2638 14.2861ZM31.5168 17.5647C32.507 18.6432 33.5003 19.8406 34.4773 21.1424C33.5068 21.096 32.5191 21.0721 31.5179 21.0721C30.516 21.0721 29.5277 21.096 28.5565 21.1425C29.5335 19.8407 30.5266 18.6433 31.5168 17.5647ZM31.5179 23.0721C29.9899 23.0721 28.4995 23.1295 27.0602 23.2384C26.2455 24.4374 25.4497 25.7068 24.6847 27.0376C23.9201 28.3676 23.2239 29.6938 22.5977 31.0012C23.2239 32.3085 23.9201 33.6347 24.6847 34.9647C25.4493 36.2948 26.2446 37.5636 27.0589 38.762C28.4986 38.871 29.9895 38.9283 31.5179 38.9283C33.0456 38.9283 34.5359 38.871 35.9751 38.7621C36.7899 37.563 37.5858 36.2934 38.351 34.9624C39.1151 33.6331 39.811 32.3078 40.4368 31.0012C39.811 29.6945 39.1151 28.3691 38.351 27.0399C37.5854 25.7082 36.7891 24.4379 35.9738 23.2383C34.535 23.1295 33.0452 23.0721 31.5179 23.0721ZM30.1232 16.1232C28.7122 17.652 27.3063 19.3992 25.9514 21.3246C23.6159 21.5405 21.4084 21.8896 19.3864 22.3521C19.1508 21.4232 18.9647 20.5297 18.8291 19.6796C18.4836 17.5138 18.4747 15.6839 18.7719 14.2884C19.0691 12.8925 19.6436 12.0434 20.3756 11.6189C21.1077 11.1943 22.1271 11.1193 23.4793 11.5586C24.8312 11.9979 26.4046 12.9206 28.0992 14.304C28.7638 14.8465 29.4406 15.4546 30.1232 16.1232ZM24.4965 23.4928C22.8852 23.6918 21.356 23.9571 19.9309 24.2794C20.3655 25.6801 20.9014 27.1429 21.5353 28.6439C21.9806 27.7764 22.4539 26.9053 22.9545 26.0343C23.4556 25.1626 23.9706 24.3145 24.4965 23.4928ZM16.8574 19.9998C17.0026 20.91 17.2008 21.8613 17.4502 22.8455C16.476 23.1207 15.5559 23.4243 14.6976 23.7534C12.5241 24.587 10.6964 25.604 9.39466 26.7842C8.09282 27.9646 7.23682 29.3877 7.23682 31.0002C7.23682 32.6128 8.09282 34.0359 9.39466 35.2163C10.6964 36.3965 12.5241 37.4135 14.6976 38.2471C15.556 38.5762 16.4763 38.8798 17.4507 39.1552C17.201 40.1399 17.0027 41.0917 16.8575 42.0025C16.4895 44.3092 16.4526 46.4068 16.8193 48.1289C17.1859 49.8506 17.9852 51.3092 19.3789 52.1173C20.7726 52.9255 22.4299 52.8915 24.0978 52.3496C25.766 51.8075 27.5562 50.7266 29.3612 49.2532C30.0728 48.6722 30.7934 48.0248 31.5167 47.3164C32.2407 48.0257 32.962 48.6739 33.6745 49.2555C35.4795 50.7288 37.2697 51.8098 38.9379 52.3519C40.6057 52.8938 42.263 52.9278 43.6567 52.1196C45.0504 51.3114 45.8497 49.8529 46.2164 48.1312C46.5831 46.4091 46.5461 44.3115 46.1782 42.0048C46.0328 41.0934 45.8344 40.1408 45.5844 39.1553C46.5591 38.88 47.4796 38.5763 48.3381 38.2471C50.5117 37.4135 52.3394 36.3965 53.6411 35.2163C54.9429 34.0359 55.7989 32.6128 55.7989 31.0002C55.7989 29.3877 54.9429 27.9646 53.6411 26.7842C52.3394 25.604 50.5117 24.587 48.3381 23.7534C47.4797 23.4242 46.5593 23.1206 45.5849 22.8453C45.8346 21.8604 46.0329 20.9084 46.1782 19.9975C46.5462 17.6908 46.5831 15.5931 46.2164 13.8711C45.8497 12.1494 45.0504 10.6908 43.6567 9.88265C42.263 9.07447 40.6058 9.10848 38.9379 9.65042C37.2697 10.1925 35.4795 11.2734 33.6745 12.7468C32.962 13.3284 32.2407 13.9766 31.5167 14.6859C30.7934 13.9775 30.0728 13.3301 29.3611 12.7491C27.5562 11.2757 25.766 10.1947 24.0978 9.6527C22.4299 9.11076 20.7726 9.07675 19.3789 9.88494C17.9852 10.6931 17.1859 12.1516 16.8193 13.8734C16.4525 15.5954 16.4895 17.6931 16.8574 19.9998ZM15.4137 36.3797C16.2131 36.6862 17.0748 36.9706 17.9917 37.2297C18.6041 35.2384 19.4072 33.1422 20.3896 31.0012C19.4069 28.8595 18.6036 26.7628 17.9912 24.7709C17.0745 25.03 16.2129 25.3143 15.4137 25.6208C13.3743 26.403 11.7925 27.3098 10.7381 28.2659C9.68373 29.2218 9.23682 30.1474 9.23682 31.0002C9.23682 31.8531 9.68373 32.7787 10.7381 33.7346C11.7925 34.6907 13.3743 35.5975 15.4137 36.3797ZM18.8291 42.3227C18.9648 41.4721 19.151 40.578 19.3868 39.6485C21.4084 40.1108 23.6152 40.4599 25.95 40.6757C27.3053 42.602 28.7117 44.3498 30.1232 45.879C29.4406 46.5477 28.7639 47.1558 28.0992 47.6983C26.4046 49.0817 24.8312 50.0044 23.4793 50.4436C22.1271 50.883 21.1078 50.8079 20.3757 50.3834C19.6436 49.9589 19.0691 49.1097 18.7719 47.7139C18.4747 46.3183 18.4836 44.4885 18.8291 42.3227ZM19.9314 37.7213C21.356 38.0434 22.8846 38.3086 24.4952 38.5075C23.9698 37.6864 23.4552 36.839 22.9545 35.968C22.4539 35.097 21.9806 34.2259 21.5353 33.3584C20.9016 34.8588 20.366 36.321 19.9314 37.7213ZM31.5168 44.4375C30.5261 43.3585 29.5325 42.1604 28.5551 40.8579C29.5267 40.9044 30.5155 40.9283 31.5179 40.9283C32.5196 40.9283 33.5078 40.9045 34.4787 40.858C33.5012 42.1605 32.5075 43.3586 31.5168 44.4375ZM32.9103 45.8792C34.3218 44.35 35.7284 42.6022 37.0839 40.6759C39.4191 40.4601 41.6264 40.111 43.6483 39.6486C43.8843 40.5789 44.0708 41.4737 44.2065 42.325C44.552 44.4907 44.561 46.3206 44.2638 47.7162C43.9665 49.112 43.3921 49.9612 42.66 50.3857C41.9279 50.8102 40.9085 50.8853 39.5563 50.4459C38.2044 50.0067 36.6311 49.0839 34.9364 47.7006C34.2711 47.1575 33.5935 46.5487 32.9103 45.8792ZM47.622 36.3797C46.8225 36.6863 45.9604 36.9707 45.0433 37.2299C44.4308 35.2385 43.6275 33.1422 42.645 31.0012C43.6278 28.8595 44.4313 26.7626 45.0438 24.7707C45.9608 25.0299 46.8226 25.3143 47.622 25.6208C49.6615 26.403 51.2432 27.3098 52.2977 28.2659C53.352 29.2218 53.7989 30.1474 53.7989 31.0002C53.7989 31.8531 53.352 32.7787 52.2977 33.7346C51.2432 34.6907 49.6615 35.5975 47.622 36.3797ZM41.4993 28.6441C42.1334 27.143 42.6693 25.6801 43.1041 24.2792C41.6787 23.9569 40.1492 23.6916 38.5376 23.4926C39.064 24.3151 39.5795 25.164 40.0811 26.0366C40.5814 26.9069 41.0543 27.7773 41.4993 28.6441ZM38.5388 38.5077C40.1498 38.3088 41.6787 38.0436 43.1036 37.7214C42.6689 36.3211 42.1331 34.8587 41.4993 33.3582C41.0543 34.225 40.5814 35.0954 40.0811 35.9657C39.5799 36.8376 39.0648 37.6858 38.5388 38.5077ZM35.8566 30.9974C35.8566 33.4041 33.914 35.3552 31.5178 35.3552C29.1216 35.3552 27.1791 33.4041 27.1791 30.9974C27.1791 28.5907 29.1216 26.6396 31.5178 26.6396C33.914 26.6396 35.8566 28.5907 35.8566 30.9974Z" fill="url(#paint0_linear_6_64)" shape-rendering="crispEdges"/>
</g>
<defs>
<filter id="filter0_d_6_64" x="0" y="0" width="68" height="68" filterUnits="userSpaceOnUse" color-interpolation-filters="sRGB">
<feFlood flood-opacity="0" result="BackgroundImageFix"/>
<feColorMatrix in="SourceAlpha" type="matrix" values="0 0 0 0 0 0 0 0 0 0 0 0 0 0 0 0 0 0 127 0" result="hardAlpha"/>
<feOffset dx="3" dy="3"/>
<feGaussianBlur stdDeviation="2.5"/>
<feComposite in2="hardAlpha" operator="out"/>
<feColorMatrix type="matrix" values="0 0 0 0 0 0 0 0 0 0 0 0 0 0 0 0 0 0 0.5 0"/>
<feBlend mode="normal" in2="BackgroundImageFix" result="effect1_dropShadow_6_64"/>
<feBlend mode="normal" in="SourceGraphic" in2="effect1_dropShadow_6_64" result="shape"/>
</filter>
<linearGradient id="paint0_linear_6_64" x1="57.4107" y1="6.66072" x2="6.14286" y2="54.3036" gradientUnits="userSpaceOnUse">
<stop stop-color="white"/>
<stop offset="0.302083" stop-color="#C9C9C9"/>
<stop offset="0.567708" stop-color="#D0D0D0"/>
<stop offset="1" stop-color="white" stop-opacity="0"/>
</linearGradient>
</defs>
</svg>
