<svg width="65" height="61" viewBox="0 0 65 61" fill="none" xmlns="http://www.w3.org/2000/svg">
<g filter="url(#filter0_d_76_11)">
<path d="M29.376 32.9371C32.0908 32.9371 34.2915 30.7267 34.2915 28C34.2915 25.2733 32.0908 23.0629 29.376 23.0629C26.6612 23.0629 24.4604 25.2733 24.4604 28C24.4604 30.7267 26.6612 32.9371 29.376 32.9371Z" fill="url(#paint0_linear_76_11)"/>
</g>
<g filter="url(#filter1_d_76_11)">
<path d="M29.3761 38.115C43.9432 38.115 55.7521 33.5864 55.7521 28C55.7521 22.4136 43.9432 17.885 29.3761 17.885C14.809 17.885 3 22.4136 3 28C3 33.5864 14.809 38.115 29.3761 38.115Z" stroke="url(#paint1_linear_76_11)" stroke-width="2" shape-rendering="crispEdges"/>
</g>
<g filter="url(#filter2_d_76_11)">
<path d="M20.6545 33.0575C27.938 45.7283 37.7473 53.7357 42.5641 50.9425C47.3809 48.1493 45.3813 35.6133 38.0977 22.9425C30.8142 10.2717 21.0049 2.26432 16.188 5.05751C11.3712 7.85069 13.3709 20.3867 20.6545 33.0575Z" stroke="url(#paint2_linear_76_11)" stroke-width="2" shape-rendering="crispEdges"/>
</g>
<g filter="url(#filter3_d_76_11)">
<path d="M20.6544 22.9425C13.3708 35.6133 11.3711 48.1493 16.1879 50.9425C21.0048 53.7357 30.8141 45.7283 38.0976 33.0575C45.3812 20.3867 47.3808 7.8507 42.564 5.05751C37.7472 2.26433 27.9379 10.2717 20.6544 22.9425Z" stroke="url(#paint3_linear_76_11)" stroke-width="2" shape-rendering="crispEdges"/>
</g>
<defs>
<filter id="filter0_d_76_11" x="22.4604" y="21.0629" width="19.8311" height="19.8742" filterUnits="userSpaceOnUse" color-interpolation-filters="sRGB">
<feFlood flood-opacity="0" result="BackgroundImageFix"/>
<feColorMatrix in="SourceAlpha" type="matrix" values="0 0 0 0 0 0 0 0 0 0 0 0 0 0 0 0 0 0 127 0" result="hardAlpha"/>
<feOffset dx="3" dy="3"/>
<feGaussianBlur stdDeviation="2.5"/>
<feComposite in2="hardAlpha" operator="out"/>
<feColorMatrix type="matrix" values="0 0 0 0 0 0 0 0 0 0 0 0 0 0 0 0 0 0 0.65 0"/>
<feBlend mode="normal" in2="BackgroundImageFix" result="effect1_dropShadow_76_11"/>
<feBlend mode="normal" in="SourceGraphic" in2="effect1_dropShadow_76_11" result="shape"/>
</filter>
<filter id="filter1_d_76_11" x="0" y="14.885" width="64.7522" height="32.23" filterUnits="userSpaceOnUse" color-interpolation-filters="sRGB">
<feFlood flood-opacity="0" result="BackgroundImageFix"/>
<feColorMatrix in="SourceAlpha" type="matrix" values="0 0 0 0 0 0 0 0 0 0 0 0 0 0 0 0 0 0 127 0" result="hardAlpha"/>
<feOffset dx="3" dy="3"/>
<feGaussianBlur stdDeviation="2.5"/>
<feComposite in2="hardAlpha" operator="out"/>
<feColorMatrix type="matrix" values="0 0 0 0 0 0 0 0 0 0 0 0 0 0 0 0 0 0 0.65 0"/>
<feBlend mode="normal" in2="BackgroundImageFix" result="effect1_dropShadow_76_11"/>
<feBlend mode="normal" in="SourceGraphic" in2="effect1_dropShadow_76_11" result="shape"/>
</filter>
<filter id="filter2_d_76_11" x="10.5649" y="1.50015" width="43.6223" height="58.9997" filterUnits="userSpaceOnUse" color-interpolation-filters="sRGB">
<feFlood flood-opacity="0" result="BackgroundImageFix"/>
<feColorMatrix in="SourceAlpha" type="matrix" values="0 0 0 0 0 0 0 0 0 0 0 0 0 0 0 0 0 0 127 0" result="hardAlpha"/>
<feOffset dx="3" dy="3"/>
<feGaussianBlur stdDeviation="2.5"/>
<feComposite in2="hardAlpha" operator="out"/>
<feColorMatrix type="matrix" values="0 0 0 0 0 0 0 0 0 0 0 0 0 0 0 0 0 0 0.65 0"/>
<feBlend mode="normal" in2="BackgroundImageFix" result="effect1_dropShadow_76_11"/>
<feBlend mode="normal" in="SourceGraphic" in2="effect1_dropShadow_76_11" result="shape"/>
</filter>
<filter id="filter3_d_76_11" x="10.5648" y="1.50017" width="43.6223" height="58.9997" filterUnits="userSpaceOnUse" color-interpolation-filters="sRGB">
<feFlood flood-opacity="0" result="BackgroundImageFix"/>
<feColorMatrix in="SourceAlpha" type="matrix" values="0 0 0 0 0 0 0 0 0 0 0 0 0 0 0 0 0 0 127 0" result="hardAlpha"/>
<feOffset dx="3" dy="3"/>
<feGaussianBlur stdDeviation="2.5"/>
<feComposite in2="hardAlpha" operator="out"/>
<feColorMatrix type="matrix" values="0 0 0 0 0 0 0 0 0 0 0 0 0 0 0 0 0 0 0.65 0"/>
<feBlend mode="normal" in2="BackgroundImageFix" result="effect1_dropShadow_76_11"/>
<feBlend mode="normal" in="SourceGraphic" in2="effect1_dropShadow_76_11" result="shape"/>
</filter>
<linearGradient id="paint0_linear_76_11" x1="46.5" y1="18" x2="29.376" y2="32.9371" gradientUnits="userSpaceOnUse">
<stop stop-color="white"/>
<stop offset="0.510417" stop-color="#E1E1E1"/>
<stop offset="0.567708" stop-color="#C6C6C6"/>
<stop offset="1" stop-color="white"/>
</linearGradient>
<linearGradient id="paint1_linear_76_11" x1="29.3761" y1="17.885" x2="29.3761" y2="38.115" gradientUnits="userSpaceOnUse">
<stop stop-color="#F5FDFF"/>
<stop offset="0.369792" stop-color="#B2B5B6"/>
<stop offset="0.494792" stop-color="#D0D0D0"/>
</linearGradient>
<linearGradient id="paint2_linear_76_11" x1="38.0977" y1="22.9425" x2="20.6164" y2="32.9913" gradientUnits="userSpaceOnUse">
<stop stop-color="#F5FDFF"/>
<stop offset="0.369792" stop-color="#B2B5B6"/>
<stop offset="0.494792" stop-color="#D0D0D0"/>
</linearGradient>
<linearGradient id="paint3_linear_76_11" x1="38.0976" y1="33.0575" x2="20.6163" y2="23.0087" gradientUnits="userSpaceOnUse">
<stop stop-color="#F5FDFF"/>
<stop offset="0.369792" stop-color="#B2B5B6"/>
<stop offset="0.494792" stop-color="#D0D0D0"/>
</linearGradient>
</defs>
</svg>
