<svg width="88" height="68" viewBox="0 0 88 68" fill="none" xmlns="http://www.w3.org/2000/svg">
<g filter="url(#filter0_d_6_77)">
<path d="M68.5664 35.2834C65.8628 35.2987 63.5216 35.948 61.5581 36.9148C60.8331 35.48 60.1081 34.2262 59.9874 33.2898C59.8515 32.2023 59.6853 31.5376 59.8515 30.2388C60.0175 28.9397 60.7727 27.097 60.7727 26.9459C60.7574 26.81 60.6064 26.1454 59.0508 26.1303C57.4952 26.1152 56.1508 26.4324 55.9998 26.8402C55.8487 27.248 55.5466 28.1845 55.3503 29.1512C55.0784 30.5709 52.2388 35.6006 50.6227 38.2439C50.094 37.2168 49.6409 36.3105 49.5501 35.5854C49.4143 34.498 49.248 33.8333 49.4143 32.5345C49.5805 31.2354 50.3357 29.3928 50.3357 29.2418C50.3206 29.1058 50.1696 28.4413 48.614 28.4262C47.0581 28.4111 45.714 28.7282 45.5629 29.1361C45.4119 29.5439 45.2457 30.5105 44.9135 31.447C44.5961 32.3834 40.8201 40.7814 39.8383 42.9715C39.3399 44.0892 38.902 44.9803 38.5847 45.5845C38.2675 46.1887 38.5696 45.6298 38.5393 45.6902C38.2675 46.2038 38.1164 46.4907 38.1164 46.4907V46.506C37.905 46.8836 37.6784 47.2459 37.5725 47.2459C37.497 47.2459 37.346 46.234 37.6027 44.8445C38.1616 41.9293 39.521 37.3831 39.506 37.2169C39.506 37.1414 39.7626 36.3407 38.6298 35.9331C37.5272 35.5253 37.1347 36.205 37.0439 36.205C36.9533 36.205 36.8777 36.4466 36.8777 36.4466C36.8777 36.4466 38.1012 31.3265 34.5366 31.3265C32.3012 31.3265 29.2199 33.7582 27.6944 35.9785C26.7277 36.5072 24.6736 37.6247 22.4986 38.8181C21.6678 39.2712 20.8069 39.7546 19.9913 40.1926L19.8253 40.011C15.5055 35.4043 7.51539 32.1418 7.84768 25.9491C7.96851 23.6986 8.75393 17.7626 23.1937 10.573C35.0202 4.68241 44.4905 6.29855 46.1367 9.89335C48.4779 15.0288 41.0768 24.5746 28.7822 25.9491C24.0999 26.4777 21.6378 24.6652 21.0187 23.9855C20.3692 23.2756 20.2786 23.2454 20.0369 23.3814C19.6442 23.5928 19.8859 24.2272 20.0369 24.6048C20.3994 25.5564 21.9098 27.248 24.4775 28.0939C26.7279 28.834 32.226 29.2418 38.8718 26.6741C46.3181 23.7892 52.1332 15.784 50.4265 9.09282C48.6895 2.28085 37.3916 0.0454288 26.7129 3.83657C20.3539 6.1022 13.4664 9.63657 8.51226 14.2736C2.62164 19.7715 1.68518 24.5746 2.07789 26.5683C3.45252 33.6824 13.255 38.3194 17.1821 41.748C16.9857 41.8536 16.8044 41.9593 16.6383 42.0501C14.6748 43.0166 7.1982 46.9288 5.32528 51.0672C3.2107 55.7494 5.65757 59.1178 7.28882 59.5709C12.3336 60.9756 17.4992 58.4532 20.2935 54.2996C23.0725 50.1459 22.7404 44.7538 21.4565 42.2918L21.4111 42.2012L22.9517 41.2949C23.9487 40.7058 24.9305 40.1621 25.7913 39.6937C25.3081 41.0078 24.9605 42.5635 24.7794 44.8291C24.568 47.4876 25.6555 50.9312 27.0904 52.2906C27.7248 52.8795 28.48 52.8948 28.9482 52.8948C30.6097 52.8948 31.3649 51.5201 32.1956 49.8739C33.2227 47.8651 34.1289 45.539 34.1289 45.539C34.1289 45.539 32.9961 51.8375 36.0925 51.8375C37.2253 51.8375 38.3581 50.3724 38.8716 49.6171V49.6323C38.8716 49.6323 38.9018 49.5869 38.9623 49.4812C39.0256 49.3875 39.0861 49.2919 39.1435 49.1944V49.1642C39.5966 48.3788 40.6086 46.5814 42.119 43.6058C44.0673 39.7694 45.9404 34.9663 45.9404 34.9663C45.9404 34.9663 46.1216 36.1444 46.6805 38.0777C47.0126 39.2258 47.7376 40.4793 48.2965 41.7027C47.8434 42.3371 47.5715 42.6997 47.5715 42.6997L47.5866 42.7148C47.2242 43.1982 46.8163 43.7119 46.3935 44.2253C44.8529 46.068 43.0102 48.1676 42.7685 48.7718C42.4815 49.4815 42.542 50.0102 43.1008 50.4332C43.5086 50.7353 44.2336 50.7956 45.0039 50.7353C46.3935 50.6445 47.3602 50.2973 47.8435 50.0857C48.5987 49.8138 49.4597 49.406 50.2904 48.8018C51.8008 47.6843 52.7222 46.0983 52.6315 43.9837C52.5862 42.8207 52.2086 41.6728 51.7404 40.5853C51.8763 40.389 52.0124 40.1925 52.1482 39.9811C54.5347 36.4919 56.3774 32.6556 56.3774 32.6556C56.3774 32.6556 56.5586 33.8337 57.1175 35.7671C57.4043 36.7489 57.9784 37.8214 58.4919 38.8787C56.2565 40.7063 54.8518 42.8209 54.3685 44.2105C53.4774 46.7782 54.1722 47.9412 55.4862 48.2131C56.0751 48.3339 56.9211 48.062 57.5553 47.7902C58.3408 47.5334 59.2923 47.0952 60.1685 46.4459C61.6789 45.3282 63.1289 43.7724 63.0534 41.673C63.0081 40.7063 62.7513 39.7547 62.4039 38.8485C64.3071 38.0631 66.7689 37.6099 69.8956 37.9875C76.617 38.773 77.9461 42.9719 77.6895 44.724C77.4327 46.4762 76.028 47.4428 75.5597 47.7448C75.0914 48.0318 74.9404 48.1377 74.9857 48.349C75.0461 48.6663 75.2576 48.6511 75.6654 48.5908C76.2242 48.5 79.1998 47.1559 79.3206 43.9238C79.5018 39.7695 75.5597 35.2383 68.5664 35.2834ZM16.7289 52.759C14.5086 55.1907 11.3821 56.1121 10.0529 55.3267C8.61799 54.4959 9.17669 50.9163 11.9107 48.3334C13.5722 46.7626 15.7321 45.3126 17.1518 44.4215C17.469 44.2251 17.9524 43.9383 18.5263 43.5907C18.6169 43.5305 18.6774 43.5001 18.6774 43.5001C18.7831 43.4397 18.9039 43.3642 19.0248 43.2887C20.0367 46.9741 19.0701 50.2064 16.7289 52.759ZM32.9659 41.7178C32.1956 43.6058 30.5643 48.4543 29.5826 48.1824C28.7366 47.9558 28.2232 44.2855 29.4163 40.6605C30.0204 38.8328 31.3043 36.6579 32.0595 35.8119C33.2831 34.4526 34.6121 33.9994 34.9446 34.5583C35.3373 35.2834 33.4492 40.5397 32.9659 41.7178ZM46.3633 48.122C46.031 48.2883 45.7289 48.409 45.593 48.3185C45.4873 48.2581 45.7288 48.0315 45.7288 48.0315C45.7288 48.0315 47.4053 46.2341 48.0699 45.4034C48.4475 44.9202 48.9007 44.3614 49.384 43.7268V43.9081C49.3841 46.0829 47.2998 47.5329 46.3633 48.122ZM56.6944 45.7657C56.4527 45.5845 56.4831 45.0256 57.2986 43.2736C57.6159 42.5788 58.3408 41.4157 59.5944 40.3131C59.7454 40.7663 59.8362 41.2041 59.821 41.6121C59.806 44.3308 57.8727 45.3428 56.6944 45.7657Z" fill="url(#paint0_linear_6_77)" shape-rendering="crispEdges"/>
</g>
<defs>
<filter id="filter0_d_6_77" x="0" y="0" width="87.3265" height="67.9621" filterUnits="userSpaceOnUse" color-interpolation-filters="sRGB">
<feFlood flood-opacity="0" result="BackgroundImageFix"/>
<feColorMatrix in="SourceAlpha" type="matrix" values="0 0 0 0 0 0 0 0 0 0 0 0 0 0 0 0 0 0 127 0" result="hardAlpha"/>
<feOffset dx="3" dy="3"/>
<feGaussianBlur stdDeviation="2.5"/>
<feComposite in2="hardAlpha" operator="out"/>
<feColorMatrix type="matrix" values="0 0 0 0 0 0 0 0 0 0 0 0 0 0 0 0 0 0 0.5 0"/>
<feBlend mode="normal" in2="BackgroundImageFix" result="effect1_dropShadow_6_77"/>
<feBlend mode="normal" in="SourceGraphic" in2="effect1_dropShadow_6_77" result="shape"/>
</filter>
<linearGradient id="paint0_linear_6_77" x1="72.5" y1="-0.999999" x2="-1" y2="60" gradientUnits="userSpaceOnUse">
<stop offset="0.0344559" stop-color="white"/>
<stop offset="0.380208" stop-color="#D3CED1"/>
<stop offset="0.489583" stop-color="#B3B3B3"/>
<stop offset="1" stop-color="white" stop-opacity="0"/>
</linearGradient>
</defs>
</svg>
