<svg width="56" height="27" viewBox="0 0 56 27" fill="none" xmlns="http://www.w3.org/2000/svg">
<path d="M12.3567 15.653C12.2691 15.054 11.7578 14.6085 11.1515 14.6085H3.65248C3.29458 14.6085 2.95618 14.7642 2.72245 15.0394C2.49111 15.3121 2.39136 15.6725 2.45219 16.0255L3.6696 23.3297C3.76695 23.9164 4.27585 24.3474 4.86989 24.3474H14.0343C14.4896 24.3474 14.9035 24.0941 15.1129 23.6924C15.3223 23.2907 15.2906 22.8037 15.0326 22.4312C13.635 20.4348 12.7097 18.0877 12.3567 15.653Z" fill="white"/>
<path d="M12.3567 11.1292C12.7097 8.69453 13.6326 6.34737 15.0325 4.34852C15.2905 3.97601 15.3222 3.48902 15.1128 3.08729C14.9034 2.68795 14.487 2.43481 14.0342 2.43481H1.21777C0.859868 2.43481 0.521477 2.5906 0.287741 2.86576C0.0564029 3.13842 -0.0433454 3.49883 0.0174851 3.85183L1.23489 11.1561C1.33225 11.7428 1.84114 12.1737 2.43518 12.1737H11.1515C11.7578 12.1737 12.2691 11.7282 12.3567 11.1292Z" fill="white"/>
<path d="M52.3473 14.6085H44.8483C44.2421 14.6085 43.7308 15.054 43.6431 15.653C43.2901 18.0877 42.3673 20.4348 40.9674 22.4337C40.7093 22.8062 40.6776 23.2932 40.887 23.6949C41.0964 24.099 41.5128 24.3499 41.9656 24.3499H51.1301C51.7241 24.3499 52.233 23.9189 52.3303 23.3322L53.5477 16.028C53.6062 15.675 53.5063 15.3146 53.2775 15.0419C53.0436 14.7642 52.7053 14.6085 52.3473 14.6085Z" fill="white"/>
<path d="M27.9999 0C20.6177 0 14.6088 6.00647 14.6088 13.391C14.6088 20.7756 20.6178 26.7821 27.9999 26.7821C35.3819 26.7821 41.3909 20.7756 41.3909 13.391C41.3909 6.00647 35.382 0 27.9999 0ZM36.166 11.8182L33.0008 14.9834L33.9723 18.8692C34.0746 19.0494 34.133 19.2563 34.133 19.4779C34.133 20.1498 33.5876 20.6953 32.9156 20.6953C32.9034 20.6953 32.884 20.6977 32.8669 20.6953C32.6819 20.6953 32.4967 20.6514 32.3214 20.5662L27.9973 18.4041L23.6732 20.5662C23.2447 20.7756 22.7359 20.7269 22.3682 20.4274C21.9981 20.1303 21.8326 19.6435 21.9469 19.1833L22.9987 14.981L19.8336 11.8158C19.4854 11.4676 19.3808 10.9442 19.5707 10.4889C19.7606 10.0335 20.2037 9.73893 20.6955 9.73893H24.8127L26.909 5.5414C27.323 4.71602 28.6742 4.71602 29.0881 5.5414L31.1868 9.73893H35.304C35.7957 9.73893 36.2413 10.036 36.4288 10.4913C36.6164 10.9466 36.5118 11.4676 36.166 11.8182Z" fill="white"/>
<path d="M55.7121 2.86564C55.4783 2.59048 55.1399 2.43469 54.782 2.43469H41.9655C41.5103 2.43469 41.0963 2.68794 40.8869 3.08968C40.6775 3.49141 40.7092 3.97839 40.9672 4.35091C42.3647 6.34987 43.29 8.69452 43.643 11.1316C43.7306 11.7306 44.2419 12.1761 44.8482 12.1761H53.5645C54.1586 12.1761 54.6675 11.7452 54.7648 11.1584L55.9822 3.85422C56.0433 3.49871 55.9434 3.13841 55.7121 2.86564Z" fill="white"/>
</svg>
