<svg width="56" height="56" viewBox="0 0 56 56" fill="none" xmlns="http://www.w3.org/2000/svg">
<path fill-rule="evenodd" clip-rule="evenodd" d="M17.472 56C16.8513 56 16.3333 55.496 16.3333 54.8637V53.6667C13.7573 53.6667 11.6667 51.576 11.6667 49V18.6667C11.6667 16.0907 13.7573 14 16.3333 14H21V2.33333C21 1.04533 22.0453 0 23.3333 0H32.6667C33.9547 0 35 1.04533 35 2.33333V14H39.6667C42.245 14 44.3333 16.0907 44.3333 18.6667V49C44.3333 51.576 42.245 53.6667 39.6667 53.6667V54.8053C39.6667 55.4657 39.1347 56 38.472 56H38.4697C37.8513 56 37.3333 55.5007 37.3333 54.8637V53.6667H18.6667V54.8053C18.6667 55.4657 18.1323 56 17.472 56ZM38.5 25.6667C39.1463 25.6667 39.6667 25.144 39.6667 24.5C39.6667 23.856 39.1463 23.3333 38.5 23.3333H17.5C16.856 23.3333 16.3333 23.856 16.3333 24.5C16.3333 25.144 16.856 25.6667 17.5 25.6667H18.683C18.515 28.0863 19.5907 30.184 21.007 31.1547L21 34.5987L29.2343 42.8657L35.847 36.2787L27.6127 28.014L24.605 28.007C24.3157 27.1577 23.8233 26.3247 23.2563 25.6667H38.5ZM27.181 33.299L31.43 37.548L30.604 38.3717L26.355 34.125L27.181 33.299ZM28.7747 37.3683L27.951 38.1943L25.1183 35.3617L25.9443 34.538L28.7747 37.3683ZM28.4177 32.0623L32.6667 36.3113L31.8407 37.135L27.594 32.886L28.4177 32.0623ZM24.7497 30.3683C24.5117 31.0287 23.9773 31.4463 23.3357 31.626C23.4337 32.5967 24.6213 33.026 25.319 32.333C25.97 31.689 25.6503 30.5737 24.7497 30.3683ZM21.574 25.6667C22.3533 26.2663 23.0067 27.1553 23.3543 28.0047L21.014 28L21.0117 29.5913L20.9697 29.54C20.195 28.6043 19.7353 27.23 19.8567 25.6667H21.574ZM31.5 4.66667H24.5C23.856 4.66667 23.3333 5.18933 23.3333 5.83333V14H32.6667V5.83333C32.6667 5.18933 32.144 4.66667 31.5 4.66667Z" fill="white"/>
</svg>
